<svg xmlns="http://www.w3.org/2000/svg" version="1.1" xmlns:xlink="http://www.w3.org/1999/xlink" xmlns:svgjs="http://svgjs.dev/svgjs" width="1500" height="537" viewBox="0 0 1500 537"><g transform="matrix(1,0,0,1,-0.9090909090909918,-1.1047166678856115)"><svg viewBox="0 0 396 142" data-background-color="#ecf3ef" preserveAspectRatio="xMidYMid meet" height="537" width="1500" xmlns="http://www.w3.org/2000/svg" xmlns:xlink="http://www.w3.org/1999/xlink"><g id="tight-bounds" transform="matrix(1,0,0,1,0.2400000000000091,0.2921224708375405)"><svg viewBox="0 0 395.52 141.4157550583249" height="141.4157550583249" width="395.52"><g><svg viewBox="0 0 621.0860888187929 222.0655294461252" height="141.4157550583249" width="395.52"><g><rect width="8.318368592483354" height="222.0655294461252" x="239.18962898167032" y="0" fill="#638773" opacity="1" stroke-width="0" stroke="transparent" fill-opacity="1" class="rect-yte-0" data-fill-palette-color="primary" rx="1%" id="yte-0" data-palette-color="#638773"></rect></g><g transform="matrix(1,0,0,1,269.2838315858902,0.5524018145425913)"><svg viewBox="0 0 351.8022572329026 220.96072581704001" height="220.96072581704001" width="351.8022572329026"><g id="textblocktransform"><svg viewBox="0 0 351.8022572329026 220.96072581704001" height="220.96072581704001" width="351.8022572329026" id="textblock"><g><svg viewBox="0 0 351.8022572329026 198.764" height="198.764" width="351.8022572329026"><g transform="matrix(1,0,0,1,0,0)"><svg width="351.8022572329026" viewBox="1.999999999999997 -38 147.7904164598021 80.5" height="198.764" data-palette-color="#638773"><svg></svg><svg></svg><g class="wordmark-text-0" data-fill-palette-color="primary" id="text-0"><path d="M2.85-34.75h3c0.587 0 0.967 0.057 1.14 0.17 0.173 0.12 0.26 0.473 0.26 1.06v0 29.49c0 0.567-0.083 0.923-0.25 1.07-0.167 0.14-0.54 0.21-1.12 0.21v0h-2.73c-0.38 0-0.667 0.047-0.86 0.14-0.193 0.087-0.29 0.347-0.29 0.78v0 0.9c0 0.42 0.067 0.68 0.2 0.78 0.133 0.1 0.417 0.15 0.85 0.15v0h12.15c0.42 0 0.7-0.053 0.84-0.16 0.14-0.113 0.21-0.387 0.21-0.82v0-0.75c0-0.36-0.047-0.62-0.14-0.78-0.087-0.16-0.323-0.24-0.71-0.24v0h-3.8c-0.48 0-0.783-0.063-0.91-0.19-0.127-0.127-0.19-0.423-0.19-0.89v0-25.35c0-1.233 0.127-1.903 0.38-2.01 0.247-0.107 0.553 0.08 0.92 0.56v0l23.47 30.5c0.167 0.22 0.343 0.38 0.53 0.48 0.187 0.1 0.47 0.15 0.85 0.15v0h0.15c0.333 0 0.533-0.113 0.6-0.34 0.067-0.227 0.1-0.49 0.1-0.79v0-32.85c0-0.547 0.07-0.893 0.21-1.04 0.147-0.153 0.477-0.23 0.99-0.23v0h3.15c0.433 0 0.693-0.08 0.78-0.24 0.08-0.16 0.12-0.447 0.12-0.86v0-0.92c0-0.373-0.13-0.587-0.39-0.64-0.253-0.06-0.54-0.09-0.86-0.09v0h-11.55c-0.513 0-0.843 0.113-0.99 0.34-0.14 0.22-0.21 0.58-0.21 1.08v0 0.56c0 0.413 0.2 0.643 0.6 0.69 0.4 0.053 0.783 0.08 1.15 0.08v0h2.45c0.533 0 0.883 0.057 1.05 0.17 0.167 0.12 0.25 0.453 0.25 1v0 22.15c0 1-0.117 1.563-0.35 1.69-0.233 0.127-0.517-0.027-0.85-0.46v0l-19.75-25.93c-0.38-0.513-0.7-0.87-0.96-1.07-0.26-0.2-0.873-0.3-1.84-0.3v0h-7.6c-0.433 0-0.69 0.08-0.77 0.24-0.087 0.16-0.13 0.453-0.13 0.88v0 0.75c0 0.333 0.05 0.563 0.15 0.69 0.1 0.127 0.333 0.19 0.7 0.19zM47.73-22.43v14.88c0 1.78 0.233 3.267 0.7 4.46 0.467 1.193 1.287 2.09 2.46 2.69 1.173 0.6 2.82 0.9 4.94 0.9v0c2.18 0 3.95-0.43 5.31-1.29 1.36-0.86 2.44-1.957 3.24-3.29v0c0.18-0.3 0.323-0.4 0.43-0.3 0.107 0.1 0.16 0.233 0.16 0.4v0 3.03c0 0.38 0.053 0.633 0.16 0.76 0.1 0.127 0.333 0.19 0.7 0.19v0h7.45c0.333 0 0.533-0.06 0.6-0.18 0.06-0.113 0.09-0.337 0.09-0.67v0-1.3c0-0.267-0.083-0.433-0.25-0.5-0.167-0.067-0.363-0.1-0.59-0.1v0h-2.8c-0.387 0-0.627-0.05-0.72-0.15-0.093-0.1-0.14-0.333-0.14-0.7v0-21.65c0-0.287-0.03-0.483-0.09-0.59-0.067-0.107-0.233-0.16-0.5-0.16v0h-7.8c-0.253 0-0.417 0.05-0.49 0.15-0.073 0.1-0.11 0.283-0.11 0.55v0 1.57c0 0.22 0.06 0.353 0.18 0.4 0.127 0.053 0.297 0.08 0.51 0.08v0h2.76c0.36 0 0.623 0.04 0.79 0.12 0.167 0.087 0.25 0.33 0.25 0.73v0 10.55c0 1.713-0.323 3.333-0.97 4.86-0.647 1.527-1.57 2.763-2.77 3.71-1.207 0.953-2.623 1.43-4.25 1.43v0c-1.653 0-2.86-0.58-3.62-1.74-0.753-1.16-1.13-2.663-1.13-4.51v0-17.13c0-0.367-0.063-0.587-0.19-0.66-0.127-0.073-0.38-0.11-0.76-0.11v0h-7.15c-0.367 0-0.61 0.053-0.73 0.16-0.113 0.107-0.17 0.353-0.17 0.74v0 1.15c0 0.333 0.067 0.533 0.2 0.6 0.133 0.067 0.367 0.1 0.7 0.1v0h2.95c0.3 0 0.483 0.057 0.55 0.17 0.067 0.12 0.1 0.337 0.1 0.65zM91.82-4.88v0c0.087-0.213 0.093-0.363 0.02-0.45-0.08-0.08-0.22-0.153-0.42-0.22v0l-0.79-0.28c-0.273-0.1-0.453-0.123-0.54-0.07-0.093 0.047-0.2 0.197-0.32 0.45v0c-0.427 0.947-0.93 1.677-1.51 2.19-0.573 0.507-1.22 0.76-1.94 0.76v0c-0.667 0-1.2-0.227-1.6-0.68-0.393-0.447-0.59-1.17-0.59-2.17v0-17.08c0-0.38 0.083-0.613 0.25-0.7 0.167-0.08 0.423-0.12 0.77-0.12v0h5.5c0.3 0 0.513-0.03 0.64-0.09 0.12-0.06 0.18-0.24 0.18-0.54v0-1.3c0-0.347-0.053-0.57-0.16-0.67-0.107-0.1-0.327-0.15-0.66-0.15v0h-5.55c-0.313 0-0.553-0.043-0.72-0.13-0.167-0.08-0.25-0.297-0.25-0.65v0-5.49c0-0.487-0.22-0.73-0.66-0.73v0h-1.34c-0.373 0-0.6 0.05-0.68 0.15-0.087 0.1-0.163 0.293-0.23 0.58v0c-0.333 1.447-0.64 2.593-0.92 3.44-0.28 0.853-0.607 1.48-0.98 1.88-0.367 0.4-0.833 0.657-1.4 0.77-0.567 0.12-1.3 0.18-2.2 0.18v0c-0.313 0-0.517 0.03-0.61 0.09-0.093 0.053-0.14 0.24-0.14 0.56v0 1.35c0 0.333 0.06 0.54 0.18 0.62 0.113 0.087 0.347 0.13 0.7 0.13v0h2.97c0.3 0 0.51 0.067 0.63 0.2 0.12 0.133 0.18 0.35 0.18 0.65v0 18.1c0 1.367 0.39 2.523 1.17 3.47 0.78 0.953 2.07 1.43 3.87 1.43v0c1.307 0 2.43-0.247 3.37-0.74 0.94-0.493 1.723-1.157 2.35-1.99 0.62-0.833 1.097-1.75 1.43-2.75zM98.85-22.3v0 18.67c0 0.367-0.073 0.607-0.22 0.72-0.153 0.107-0.423 0.16-0.81 0.16v0h-2.77c-0.253 0-0.433 0.047-0.54 0.14-0.107 0.087-0.16 0.273-0.16 0.56v0 1.57c0 0.22 0.063 0.353 0.19 0.4 0.12 0.053 0.29 0.08 0.51 0.08v0h12.15c0.287 0 0.467-0.053 0.54-0.16 0.073-0.113 0.11-0.32 0.11-0.62v0-1.12c0-0.32-0.03-0.54-0.09-0.66-0.06-0.127-0.247-0.19-0.56-0.19v0h-3.05c-0.387 0-0.617-0.077-0.69-0.23-0.073-0.147-0.11-0.413-0.11-0.8v0-10.37c0-1.72 0.253-3.333 0.76-4.84 0.513-1.507 1.213-2.727 2.1-3.66 0.893-0.933 1.907-1.4 3.04-1.4v0c0.6 0 1 0.063 1.2 0.19 0.2 0.12 0.3 0.307 0.3 0.56v0c0 0.2-0.097 0.397-0.29 0.59-0.193 0.187-0.383 0.443-0.57 0.77-0.193 0.327-0.29 0.79-0.29 1.39v0c0 0.767 0.297 1.383 0.89 1.85 0.593 0.467 1.313 0.7 2.16 0.7v0c0.58 0 1.103-0.17 1.57-0.51 0.467-0.347 0.84-0.807 1.12-1.38 0.273-0.573 0.41-1.21 0.41-1.91v0c0-1.453-0.55-2.6-1.65-3.44-1.1-0.84-2.35-1.26-3.75-1.26v0c-1.633 0-2.97 0.37-4.01 1.11-1.047 0.74-1.867 1.677-2.46 2.81v0c-0.22 0.42-0.363 0.613-0.43 0.58-0.067-0.033-0.1-0.26-0.1-0.68v0-2.62c0-0.32-0.08-0.517-0.24-0.59-0.153-0.073-0.373-0.11-0.66-0.11v0h-7.3c-0.347 0-0.567 0.057-0.66 0.17-0.093 0.12-0.14 0.353-0.14 0.7v0 0.93c0 0.367 0.033 0.617 0.1 0.75 0.067 0.133 0.283 0.2 0.65 0.2v0h2.85c0.38 0 0.627 0.057 0.74 0.17 0.107 0.12 0.16 0.38 0.16 0.78zM122-35v0c0 0.82 0.297 1.523 0.89 2.11 0.593 0.593 1.297 0.89 2.11 0.89v0c0.833 0 1.543-0.297 2.13-0.89 0.58-0.587 0.87-1.29 0.87-2.11v0c0-0.833-0.29-1.543-0.87-2.13-0.587-0.58-1.297-0.87-2.13-0.87v0c-0.813 0-1.517 0.29-2.11 0.87-0.593 0.587-0.89 1.297-0.89 2.13zM119.03-23.25h3.37c0.4 0 0.6 0.2 0.6 0.6v0 19.2c0 0.267-0.027 0.45-0.08 0.55-0.047 0.1-0.213 0.15-0.5 0.15v0h-3.09c-0.3 0-0.513 0.04-0.64 0.12-0.127 0.087-0.19 0.297-0.19 0.63v0 1.4c0 0.267 0.057 0.433 0.17 0.5 0.12 0.067 0.323 0.1 0.61 0.1v0h12.25c0.233 0 0.37-0.043 0.41-0.13 0.04-0.08 0.06-0.237 0.06-0.47v0-1.65c0-0.233-0.04-0.377-0.12-0.43-0.087-0.047-0.247-0.07-0.48-0.07v0h-3.37c-0.207 0-0.347-0.047-0.42-0.14-0.073-0.093-0.11-0.247-0.11-0.46v0-22.13c0-0.213-0.03-0.353-0.09-0.42-0.053-0.067-0.18-0.1-0.38-0.1v0h-7.93c-0.4 0-0.6 0.217-0.6 0.65v0 1.5c0 0.247 0.027 0.41 0.08 0.49 0.047 0.073 0.197 0.11 0.45 0.11zM149.72-4.88v0c0.087-0.213 0.093-0.363 0.02-0.45-0.073-0.08-0.213-0.153-0.42-0.22v0l-0.79-0.28c-0.267-0.1-0.447-0.123-0.54-0.07-0.093 0.047-0.197 0.197-0.31 0.45v0c-0.433 0.947-0.94 1.677-1.52 2.19-0.573 0.507-1.22 0.76-1.94 0.76v0c-0.667 0-1.197-0.227-1.59-0.68-0.4-0.447-0.6-1.17-0.6-2.17v0-17.08c0-0.38 0.083-0.613 0.25-0.7 0.167-0.08 0.423-0.12 0.77-0.12v0h5.5c0.3 0 0.513-0.03 0.64-0.09 0.127-0.06 0.19-0.24 0.19-0.54v0-1.3c0-0.347-0.057-0.57-0.17-0.67-0.107-0.1-0.327-0.15-0.66-0.15v0h-5.55c-0.313 0-0.553-0.043-0.72-0.13-0.167-0.08-0.25-0.297-0.25-0.65v0-5.49c0-0.487-0.217-0.73-0.65-0.73v0h-1.35c-0.373 0-0.6 0.05-0.68 0.15-0.087 0.1-0.16 0.293-0.22 0.58v0c-0.333 1.447-0.643 2.593-0.93 3.44-0.28 0.853-0.607 1.48-0.98 1.88-0.36 0.4-0.827 0.657-1.4 0.77-0.567 0.12-1.297 0.18-2.19 0.18v0c-0.32 0-0.527 0.03-0.62 0.09-0.087 0.053-0.13 0.24-0.13 0.56v0 1.35c0 0.333 0.057 0.54 0.17 0.62 0.113 0.087 0.347 0.13 0.7 0.13v0h2.97c0.307 0 0.517 0.067 0.63 0.2 0.12 0.133 0.18 0.35 0.18 0.65v0 18.1c0 1.367 0.39 2.523 1.17 3.47 0.787 0.953 2.077 1.43 3.87 1.43v0c1.307 0 2.43-0.247 3.37-0.74 0.94-0.493 1.723-1.157 2.35-1.99 0.62-0.833 1.097-1.75 1.43-2.75z" fill="#638773" fill-rule="nonzero" stroke="none" stroke-width="1" stroke-linecap="butt" stroke-linejoin="miter" stroke-miterlimit="10" stroke-dasharray="" stroke-dashoffset="0" font-family="none" font-weight="none" font-size="none" text-anchor="none" style="mix-blend-mode: normal" data-fill-palette-color="primary" opacity="1"></path><path transform="translate(0,41.75)" d="M26.98-26.18v0c0.033 0.42 0.067 0.68 0.1 0.78 0.033 0.1 0.273 0.15 0.72 0.15v0h1.1c0.32 0 0.54-0.03 0.66-0.09 0.127-0.06 0.19-0.247 0.19-0.56v0-10.78c0-0.333-0.037-0.553-0.11-0.66-0.073-0.107-0.27-0.16-0.59-0.16v0h-1.6c-0.2 0-0.33 0.017-0.39 0.05-0.053 0.033-0.113 0.117-0.18 0.25v0l-0.78 1.77c-0.18 0.453-0.37 0.673-0.57 0.66-0.2-0.02-0.443-0.157-0.73-0.41v0c-1-0.867-2.197-1.553-3.59-2.06-1.387-0.507-2.873-0.76-4.46-0.76v0c-1.633 0-3.173 0.203-4.62 0.61-1.453 0.413-2.733 1.043-3.84 1.89-1.107 0.847-1.973 1.913-2.6 3.2-0.627 1.28-0.94 2.797-0.94 4.55v0c0 2 0.397 3.617 1.19 4.85 0.793 1.233 1.843 2.213 3.15 2.94 1.307 0.72 2.743 1.303 4.31 1.75 1.567 0.44 3.133 0.857 4.7 1.25 1.567 0.387 3.003 0.87 4.31 1.45 1.313 0.573 2.363 1.347 3.15 2.32 0.793 0.973 1.19 2.287 1.19 3.94v0c0 1.147-0.32 2.297-0.96 3.45-0.64 1.147-1.657 2.1-3.05 2.86-1.393 0.76-3.223 1.14-5.49 1.14v0c-2.267 0-4.207-0.513-5.82-1.54-1.62-1.027-2.883-2.313-3.79-3.86-0.907-1.553-1.437-3.12-1.59-4.7v0c-0.013-0.287-0.067-0.5-0.16-0.64-0.093-0.14-0.307-0.21-0.64-0.21v0h-1.05c-0.347 0-0.593 0.03-0.74 0.09-0.14 0.053-0.21 0.257-0.21 0.61v0 11.45c0 0.367 0.063 0.6 0.19 0.7 0.127 0.1 0.38 0.15 0.76 0.15v0h0.78c0.48 0 0.783-0.033 0.91-0.1 0.127-0.067 0.257-0.267 0.39-0.6v0l0.77-1.93c0.2-0.5 0.377-0.767 0.53-0.8 0.147-0.033 0.403 0.117 0.77 0.45v0c1.133 1 2.513 1.83 4.14 2.49 1.627 0.66 3.38 0.99 5.26 0.99v0c2.853 0 5.287-0.45 7.3-1.35 2.02-0.9 3.557-2.193 4.61-3.88 1.06-1.68 1.59-3.687 1.59-6.02v0c0-2.153-0.397-3.9-1.19-5.24-0.787-1.34-1.837-2.41-3.15-3.21-1.307-0.8-2.743-1.443-4.31-1.93-1.567-0.48-3.133-0.917-4.7-1.31-1.567-0.393-3.003-0.847-4.31-1.36-1.307-0.52-2.357-1.223-3.15-2.11-0.793-0.893-1.19-2.09-1.19-3.59v0c0-1.733 0.61-3.2 1.83-4.4 1.213-1.2 3.27-1.8 6.17-1.8v0c1.8 0 3.41 0.397 4.83 1.19 1.413 0.787 2.55 1.877 3.41 3.27 0.86 1.393 1.357 2.997 1.49 4.81zM35.88-13v0c0 2.5 0.437 4.77 1.31 6.81 0.873 2.04 2.22 3.667 4.04 4.88 1.813 1.207 4.147 1.81 7 1.81v0c1.96 0 3.637-0.37 5.03-1.11 1.393-0.747 2.55-1.773 3.47-3.08 0.913-1.307 1.637-2.81 2.17-4.51v0c0.067-0.18 0.07-0.3 0.01-0.36-0.053-0.06-0.217-0.09-0.49-0.09v0h-1.54c-0.233 0-0.393 0.037-0.48 0.11-0.08 0.073-0.157 0.193-0.23 0.36v0c-0.647 1.867-1.62 3.373-2.92 4.52-1.3 1.14-2.94 1.71-4.92 1.71v0c-1.82 0-3.27-0.527-4.35-1.58-1.087-1.047-1.867-2.413-2.34-4.1-0.48-1.68-0.72-3.47-0.72-5.37v0c0-1.9 0.28-3.7 0.84-5.4 0.56-1.7 1.423-3.083 2.59-4.15 1.167-1.067 2.66-1.6 4.48-1.6v0c1.347 0 2.49 0.213 3.43 0.64 0.94 0.42 1.41 0.973 1.41 1.66v0c0 0.38-0.13 0.697-0.39 0.95-0.267 0.247-0.533 0.533-0.8 0.86-0.267 0.327-0.4 0.79-0.4 1.39v0c0 0.913 0.307 1.627 0.92 2.14 0.613 0.507 1.253 0.76 1.92 0.76v0c0.74 0 1.46-0.25 2.16-0.75 0.7-0.5 1.05-1.35 1.05-2.55v0c0-1.367-0.393-2.613-1.18-3.74-0.78-1.127-1.903-2.027-3.37-2.7-1.467-0.673-3.217-1.01-5.25-1.01v0c-2.02 0-3.8 0.347-5.34 1.04-1.547 0.687-2.847 1.653-3.9 2.9-1.06 1.24-1.86 2.673-2.4 4.3-0.54 1.62-0.81 3.373-0.81 5.26zM68.28-13.5v0c0-1.3 0.093-2.587 0.28-3.86 0.193-1.28 0.533-2.437 1.02-3.47 0.48-1.033 1.157-1.86 2.03-2.48 0.88-0.627 2.003-0.94 3.37-0.94v0c1.813 0 3.203 0.55 4.17 1.65 0.967 1.1 1.63 2.54 1.99 4.32 0.36 1.787 0.54 3.713 0.54 5.78v0c0 1.3-0.097 2.587-0.29 3.86-0.193 1.273-0.53 2.427-1.01 3.46-0.487 1.033-1.167 1.863-2.04 2.49-0.873 0.627-1.993 0.94-3.36 0.94v0c-1.82 0-3.213-0.55-4.18-1.65-0.967-1.1-1.63-2.543-1.99-4.33-0.353-1.78-0.53-3.703-0.53-5.77zM63.03-12.5v0c0 2.333 0.437 4.487 1.31 6.46 0.873 1.973 2.193 3.557 3.96 4.75 1.767 1.193 3.993 1.79 6.68 1.79v0c2.68 0 4.903-0.613 6.67-1.84 1.767-1.227 3.087-2.893 3.96-5 0.88-2.107 1.32-4.493 1.32-7.16v0c0-2.333-0.44-4.487-1.32-6.46-0.873-1.98-2.193-3.563-3.96-4.75-1.767-1.193-3.99-1.79-6.67-1.79v0c-2.687 0-4.913 0.613-6.68 1.84-1.767 1.22-3.087 2.887-3.96 5-0.873 2.107-1.31 4.493-1.31 7.16zM94.95-22.3v0 18.67c0 0.367-0.073 0.607-0.22 0.72-0.153 0.107-0.42 0.16-0.8 0.16v0h-2.78c-0.247 0-0.427 0.047-0.54 0.14-0.107 0.087-0.16 0.273-0.16 0.56v0 1.57c0 0.22 0.063 0.353 0.19 0.4 0.127 0.053 0.297 0.08 0.51 0.08v0h12.15c0.287 0 0.467-0.053 0.54-0.16 0.073-0.113 0.11-0.32 0.11-0.62v0-1.12c0-0.32-0.03-0.54-0.09-0.66-0.053-0.127-0.24-0.19-0.56-0.19v0h-3.05c-0.38 0-0.61-0.077-0.69-0.23-0.073-0.147-0.11-0.413-0.11-0.8v0-10.37c0-1.72 0.253-3.333 0.76-4.84 0.513-1.507 1.213-2.727 2.1-3.66 0.893-0.933 1.907-1.4 3.04-1.4v0c0.6 0 1 0.063 1.2 0.19 0.2 0.12 0.3 0.307 0.3 0.56v0c0 0.2-0.097 0.397-0.29 0.59-0.187 0.187-0.377 0.443-0.57 0.77-0.193 0.327-0.29 0.79-0.29 1.39v0c0 0.767 0.297 1.383 0.89 1.85 0.593 0.467 1.313 0.7 2.16 0.7v0c0.587 0 1.113-0.17 1.58-0.51 0.467-0.347 0.837-0.807 1.11-1.38 0.273-0.573 0.41-1.21 0.41-1.91v0c0-1.453-0.55-2.6-1.65-3.44-1.1-0.84-2.35-1.26-3.75-1.26v0c-1.633 0-2.97 0.37-4.01 1.11-1.04 0.74-1.86 1.677-2.46 2.81v0c-0.22 0.42-0.363 0.613-0.43 0.58-0.067-0.033-0.1-0.26-0.1-0.68v0-2.62c0-0.32-0.08-0.517-0.24-0.59-0.153-0.073-0.373-0.11-0.66-0.11v0h-7.3c-0.347 0-0.567 0.057-0.66 0.17-0.093 0.12-0.14 0.353-0.14 0.7v0 0.93c0 0.367 0.033 0.617 0.1 0.75 0.067 0.133 0.283 0.2 0.65 0.2v0h2.85c0.387 0 0.633 0.057 0.74 0.17 0.107 0.12 0.16 0.38 0.16 0.78zM114.73-12.5v0c0 2.333 0.443 4.487 1.33 6.46 0.893 1.973 2.207 3.557 3.94 4.75 1.733 1.193 3.86 1.79 6.38 1.79v0c2.113 0 3.913-0.367 5.4-1.1 1.48-0.733 2.687-1.747 3.62-3.04 0.933-1.293 1.633-2.79 2.1-4.49v0c0.053-0.18 0.047-0.313-0.02-0.4-0.067-0.08-0.227-0.12-0.48-0.12v0h-1.45c-0.247 0-0.403 0.053-0.47 0.16-0.067 0.107-0.133 0.253-0.2 0.44v0c-0.667 1.833-1.657 3.307-2.97 4.42-1.307 1.12-2.95 1.68-4.93 1.68v0c-1.72 0-3.11-0.48-4.17-1.44-1.053-0.96-1.823-2.23-2.31-3.81-0.48-1.587-0.72-3.297-0.72-5.13v0c0-0.28 0.07-0.47 0.21-0.57 0.14-0.1 0.343-0.15 0.61-0.15v0h16.08c0.347 0 0.583-0.037 0.71-0.11 0.127-0.08 0.19-0.287 0.19-0.62v0c0-1.18-0.117-2.373-0.35-3.58-0.233-1.213-0.61-2.363-1.13-3.45-0.513-1.093-1.193-2.07-2.04-2.93-0.84-0.86-1.863-1.533-3.07-2.02-1.207-0.493-2.627-0.74-4.26-0.74v0c-2.687 0-4.917 0.613-6.69 1.84-1.773 1.22-3.103 2.887-3.99 5-0.88 2.107-1.32 4.493-1.32 7.16zM131.88-15.2h-11.3c-0.3 0-0.493-0.043-0.58-0.13-0.08-0.08-0.12-0.247-0.12-0.5v0c0-1.313 0.25-2.62 0.75-3.92 0.5-1.3 1.257-2.383 2.27-3.25 1.02-0.867 2.297-1.3 3.83-1.3v0c1.013 0 1.887 0.29 2.62 0.87 0.733 0.587 1.343 1.333 1.83 2.24 0.48 0.907 0.837 1.857 1.07 2.85 0.233 0.993 0.35 1.907 0.35 2.74v0c0 0.167-0.037 0.273-0.11 0.32-0.073 0.053-0.277 0.08-0.61 0.08z" fill="#638773" fill-rule="nonzero" stroke="none" stroke-width="1" stroke-linecap="butt" stroke-linejoin="miter" stroke-miterlimit="10" stroke-dasharray="" stroke-dashoffset="0" font-family="none" font-weight="none" font-size="none" text-anchor="none" style="mix-blend-mode: normal" data-fill-palette-color="primary" opacity="1"></path></g></svg></g></svg></g><g transform="matrix(1,0,0,1,0,220.53983401173653)"><svg viewBox="0 0 3.342121443712575 0.42089180530346904" height="0.42089180530346904" width="3.342121443712575"><g transform="matrix(1,0,0,1,0,0)"><svg width="3.342121443712575" viewBox="2.39 -32.03 339.23 42.72" height="0.42089180530346904" data-palette-color="#638773"><path d="M20.31-0.39L20.31-0.39Q24.9-0.39 27.81-4.57 30.71-8.74 30.71-15.23L30.71-15.23Q30.71-22.95 27.88-26.95 25.05-30.96 19.92-30.96L19.92-30.96Q17.48-30.96 15.55-30.27 13.62-29.59 11.87-27.98 10.11-26.37 9.16-23.12 8.2-19.87 8.2-15.19L8.2-15.19Q8.2-13.43 8.52-11.6 8.84-9.77 9.72-7.71 10.6-5.66 11.89-4.08 13.18-2.49 15.38-1.44 17.58-0.39 20.31-0.39ZM20.31-31.79L20.31-31.79Q22.07-31.79 23.97-31.4 25.88-31.01 28.17-29.86 30.47-28.71 32.2-26.95 33.94-25.2 35.11-22.14 36.28-19.09 36.28-15.23L36.28-15.23Q36.28-11.47 34.79-8.4 33.3-5.32 30.91-3.39 28.52-1.46 25.73-0.44 22.95 0.59 20.21 0.59L20.21 0.59Q12.84 0.59 7.62-3.64 2.39-7.86 2.39-14.84L2.39-14.84Q2.39-18.85 3.54-21.92 4.69-25 6.49-26.83 8.3-28.66 10.77-29.81 13.23-30.96 15.55-31.37 17.87-31.79 20.31-31.79ZM48.29-14.26L48.29-14.26 47.85-9.18 47.9-3.27Q49.85-1.07 53.17-1.07L53.17-1.07Q55.22-1.07 56.3-3.3 57.37-5.52 57.37-9.47L57.37-9.47Q57.37-13.48 56.35-15.8 55.32-18.12 53.46-18.12L53.46-18.12Q50.19-18.12 48.29-14.26ZM40.18-18.7L40.18-19.43Q43.99-19.43 47.51-20.36L47.51-20.36 48.19-15.87Q49.51-17.97 50.97-19.14 52.44-20.31 54.64-20.31L54.64-20.31Q57.81-20.31 60.18-17.31 62.55-14.31 62.55-10.35L62.55-10.35Q62.55-6.05 60.06-2.88 57.57 0.29 52.88 0.29L52.88 0.29Q50 0.29 47.85-1.95L47.85-1.95 47.9 8.79Q48.24 9.33 49.66 9.67 51.07 10.01 52.24 10.01L52.24 10.01 52.15 10.69Q49.7 10.55 45.94 10.55 42.19 10.55 40.28 10.69L40.28 10.69 40.28 10.01Q43.7 9.91 43.7 8.79L43.7 8.79Q43.89 2.98 43.94-6.84L43.94-6.84Q43.94-13.67 43.8-17.68L43.8-17.68Q41.79-18.6 40.18-18.7L40.18-18.7ZM71.43-11.33L71.43-11.33 80.22-11.38Q80.27-12.21 80.27-12.94L80.27-12.94Q80.27-14.45 80.02-15.38L80.02-15.38Q79.63-16.94 78.44-17.94 77.24-18.95 75.48-18.95L75.48-18.95Q73.68-18.95 72.65-16.89 71.63-14.84 71.43-11.33ZM84.57-10.64L71.38-10.6 71.38-9.52Q71.38-6.01 72.68-3.17 73.97-0.34 76.41-0.34L76.41-0.34Q79.24-0.34 80.9-2 82.56-3.66 83.2-5.47L83.2-5.47 84.57-4.49Q83.83-2.64 81.73-0.9 79.63 0.83 76.22 0.83L76.22 0.83Q72.07 0.83 69.31-1.76 66.55-4.35 66.55-9.28L66.55-9.28Q66.55-12.16 67.5-14.33 68.45-16.5 70.04-17.65 71.63-18.8 73.24-19.34 74.85-19.87 76.56-19.87L76.56-19.87Q79.19-19.87 81.46-18.46 83.74-17.04 84.42-13.87L84.42-13.87Q84.61-12.89 84.61-11.91L84.61-11.91Q84.61-11.38 84.57-10.64L84.57-10.64ZM89.25-18.21L89.25-18.99Q89.69-18.95 90.18-18.95L90.18-18.95Q92.91-18.95 95.94-19.92L95.94-19.92 96.33-15.09Q99.41-19.78 102.92-19.82L102.92-19.82Q104.58-19.82 105.88-19.29 107.17-18.75 107.9-17.94 108.64-17.14 109.1-16.06 109.56-14.99 109.73-14.04 109.9-13.09 109.9-12.11L109.9-12.11 109.9-2.1Q109.9-1.61 111.08-1.2 112.25-0.78 113.13-0.78L113.13-0.78 113.13 0Q108.2-0.2 107.02-0.2L107.02-0.2Q104.53-0.2 102.63 0L102.63 0 102.63-0.78Q103.61-0.83 104.73-1.22 105.85-1.61 105.85-2.05L105.85-2.05Q105.9-2.05 105.9-11.96L105.9-11.96Q105.9-14.65 104.95-16.31 104-17.97 102.09-17.97L102.09-17.97Q100.53-17.97 98.72-16.46 96.92-14.94 96.23-12.74L96.23-12.74 96.23-1.86Q96.23-1.07 99.65-0.78L99.65-0.78 99.65 0Q97.65-0.15 94.33-0.15L94.33-0.15Q91.15-0.15 89.25 0L89.25 0 89.25-0.78Q90.23-0.78 91.28-1.17 92.33-1.56 92.33-2.05L92.33-2.05Q92.42-5.03 92.42-9.91L92.42-9.91Q92.42-14.55 92.33-17.53L92.33-17.53Q91.4-18.02 89.25-18.21L89.25-18.21ZM139.54 0.2L139.54 0.2Q137.1 0 133.34 0 129.58 0 126.45 0.2L126.45 0.2 126.45-0.59Q127.67-0.59 129.04-0.85 130.41-1.12 130.46-1.71L130.46-1.71Q130.55-2.88 130.7-9.69 130.85-16.5 130.85-21.63L130.85-21.63Q130.85-27.73 130.7-28.56L130.7-28.56Q130.6-29.1 128.84-29.49L128.84-29.49 127.09-29.83 127.09-30.71Q132.17-30.52 138.59-30.52 145.01-30.52 149.01-30.71L149.01-30.71 149.16-23.63 148.23-23.63Q147.99-24.85 147.5-26 147.01-27.15 145.84-28.3 144.67-29.44 143.15-29.44L143.15-29.44 135.49-29.44 135.49-16.16 142.22-16.16Q144.47-16.16 144.67-20.02L144.67-20.02 145.79-20.02 145.79-11.23 144.86-11.23Q144.62-15.04 142.08-15.04L142.08-15.04 135.49-15.04 135.49-3.17Q135.49-0.98 137.19-0.73L137.19-0.73Q137.59-0.68 138.27-0.68L138.27-0.68 139.54-0.73Q139.54-0.73 139.54-0.49L139.54-0.49Q139.54-0.24 139.54-0.1L139.54-0.1Q139.54 0.1 139.54 0.2ZM164.44-0.39L164.44-0.39Q167.07-0.39 168.54-2.83 170-5.27 170-9.86L170-9.86Q170-13.67 168.44-16.53 166.88-19.38 164.34-19.38L164.34-19.38Q162.63-19.38 161.41-18.46 160.19-17.53 159.63-15.94 159.07-14.36 158.8-12.79 158.53-11.23 158.53-9.52L158.53-9.52Q158.53-5.47 160.09-2.93 161.65-0.39 164.44-0.39ZM163.9-20.36L163.9-20.36Q168.25-20.36 171.27-17.33 174.3-14.31 174.3-10.4L174.3-10.4Q174.3-5.66 171.76-2.42 169.22 0.83 164.29 0.83L164.29 0.83Q154.04 0.83 154.04-10.35L154.04-10.35Q154.04-14.7 157.07-17.53 160.09-20.36 163.9-20.36ZM188.17-0.39L188.17-0.39Q190.8-0.39 192.27-2.83 193.73-5.27 193.73-9.86L193.73-9.86Q193.73-13.67 192.17-16.53 190.61-19.38 188.07-19.38L188.07-19.38Q186.36-19.38 185.14-18.46 183.92-17.53 183.36-15.94 182.8-14.36 182.53-12.79 182.26-11.23 182.26-9.52L182.26-9.52Q182.26-5.47 183.82-2.93 185.38-0.39 188.17-0.39ZM187.63-20.36L187.63-20.36Q191.97-20.36 195-17.33 198.03-14.31 198.03-10.4L198.03-10.4Q198.03-5.66 195.49-2.42 192.95 0.83 188.02 0.83L188.02 0.83Q177.77 0.83 177.77-10.35L177.77-10.35Q177.77-14.7 180.79-17.53 183.82-20.36 187.63-20.36ZM220.98-32.03L220.98-32.03Q220.73-23.78 220.68-12.94L220.68-12.94Q220.68-5.52 220.83-1.61L220.83-1.61Q220.83-1.27 221.22-1.05 221.61-0.83 222-0.76 222.39-0.68 222.9-0.63 223.42-0.59 223.52-0.59L223.52-0.59 223.52 0Q218.44 0.2 217.27 0.49L217.27 0.49 216.87-3.08Q215.8-1.71 214.09-0.71 212.38 0.29 210.67 0.29L210.67 0.29Q206.82 0.29 204.4-2.42 201.98-5.13 201.98-9.52L201.98-9.52Q201.98-14.16 204.72-17.14 207.45-20.12 211.7-20.12L211.7-20.12Q213.02-20.12 214.09-19.63 215.17-19.14 215.68-18.6 216.19-18.07 216.48-17.58L216.48-17.58 216.78-17.09 216.78-29.25Q216.58-30.22 213.26-30.27L213.26-30.27 213.31-31.1Q218.29-31.1 220.98-32.03ZM216.44-6.4L216.44-6.4 216.78-10.89 216.53-15.28 216.29-15.92Q216-16.46 215.51-17.19 215.02-17.92 213.99-18.48 212.97-19.04 211.75-19.04L211.75-19.04Q206.96-19.04 206.96-9.96L206.96-9.96Q206.96-1.32 211.89-1.32L211.89-1.32Q213.65-1.32 215.04-3.05 216.44-4.79 216.44-6.4ZM248.9 0.2L248.9 0.2Q246.46 0 242.7 0 238.94 0 235.81 0.2L235.81 0.2 235.81-0.59Q237.04-0.59 238.4-0.85 239.77-1.12 239.82-1.71L239.82-1.71Q239.92-2.88 240.06-9.69 240.21-16.5 240.21-21.63L240.21-21.63Q240.21-27.73 240.06-28.56L240.06-28.56Q239.97-29.1 238.21-29.49L238.21-29.49 236.45-29.83 236.45-30.71Q241.53-30.52 247.95-30.52 254.37-30.52 258.37-30.71L258.37-30.71 258.52-23.63 257.59-23.63Q257.35-24.85 256.86-26 256.37-27.15 255.2-28.3 254.03-29.44 252.51-29.44L252.51-29.44 244.85-29.44 244.85-16.16 251.59-16.16Q253.83-16.16 254.03-20.02L254.03-20.02 255.15-20.02 255.15-11.23 254.22-11.23Q253.98-15.04 251.44-15.04L251.44-15.04 244.85-15.04 244.85-3.17Q244.85-0.98 246.56-0.73L246.56-0.73Q246.95-0.68 247.63-0.68L247.63-0.68 248.9-0.73Q248.9-0.73 248.9-0.49L248.9-0.49Q248.9-0.24 248.9-0.1L248.9-0.1Q248.9 0.1 248.9 0.2ZM283.03-4.05L283.03-4.05 283.76-3.61Q283.13 0.34 279.07 0.34L279.07 0.34Q277.41 0.34 276.58-0.76 275.75-1.86 275.61-3.37L275.61-3.37Q274.63-2.25 274.12-1.76 273.61-1.27 272.19-0.42 270.77 0.44 269.36 0.44L269.36 0.44Q266.92 0.44 265.16-0.93 263.4-2.29 263.4-5.27L263.4-5.27Q263.4-6.59 263.96-7.57 264.52-8.54 265.52-9.16 266.53-9.77 267.55-10.16 268.58-10.55 269.94-10.72 271.31-10.89 272.21-10.94 273.12-10.99 274.22-11.01 275.31-11.04 275.41-11.04L275.41-11.04Q275.56-11.04 275.56-14.65L275.56-14.65Q275.56-19.29 271.31-19.29L271.31-19.29Q269.85-19.29 268.97-18.65 268.09-18.02 267.89-17.14L267.89-17.14Q269.31-17.14 269.31-14.99L269.31-14.99Q269.31-13.67 268.43-13.11 267.55-12.55 266.72-12.55L266.72-12.55Q265.79-12.55 265.06-13.4 264.33-14.26 264.33-15.28L264.33-15.28Q264.33-17.09 266.62-18.8L266.62-18.8Q268.48-20.21 271.75-20.21L271.75-20.21Q274.83-20.21 277.22-18.31 279.61-16.41 279.61-13.13L279.61-13.13Q279.61-11.52 279.51-8.64 279.42-5.76 279.42-4.49L279.42-4.49Q279.42-1.22 280.93-1.27L280.93-1.27Q281.81-1.27 282.25-1.9 282.69-2.54 283.03-4.05ZM275.41-4.59L275.41-4.59 275.41-10.35Q273.7-10.21 272.26-10.03 270.82-9.86 269.8-9.5 268.77-9.13 268.19-8.25 267.6-7.37 267.6-5.81L267.6-5.81Q267.6-3.71 268.65-2.73 269.7-1.76 271.31-1.76L271.31-1.76Q273.85-1.76 275.41-4.59ZM296.26-20.26L296.26-20.26Q299.04-20.26 301.46-18.63 303.88-16.99 303.88-14.6L303.88-14.6Q303.88-12.7 302.9-11.72 301.92-10.74 300.95-10.74L300.95-10.74Q298.21-10.74 298.21-13.38L298.21-13.38Q298.21-14.45 298.85-15.21 299.48-15.97 300.26-15.97L300.26-15.97Q301.14-15.97 301.92-15.28L301.92-15.28Q300.95-19.38 296.16-19.38L296.16-19.38Q293.82-19.38 292.21-16.5 290.6-13.62 290.6-9.28L290.6-9.28Q290.6-6.01 292.33-3.44 294.06-0.88 296.6-0.88L296.6-0.88Q298.16-0.88 299.29-1.37 300.41-1.86 301.09-2.86 301.78-3.86 301.97-4.3 302.17-4.74 302.56-5.76L302.56-5.76 303.93-4.79Q303.19-2.88 301.22-1.07 299.24 0.73 296.16 0.73L296.16 0.73Q291.57 0.73 288.89-2.05 286.2-4.83 286.2-10.25L286.2-10.25Q286.2-12.89 287.23-14.92 288.25-16.94 289.86-18.04 291.47-19.14 293.09-19.7 294.7-20.26 296.26-20.26ZM321.01-20.12L320.72-18.85 315.54-18.85Q315.54-18.85 315.54-5.57L315.54-5.57Q315.54-3.47 316.2-2.2 316.86-0.93 317.99-0.93L317.99-0.93Q319.25-0.93 320.11-1.95 320.96-2.98 321.7-5.03L321.7-5.03 322.77-4.49Q322.33-3.32 321.99-2.69 321.65-2.05 321.01-1.22 320.38-0.39 319.45-0.02 318.52 0.34 317.2 0.34L317.2 0.34Q314.27 0.34 312.81-1.32L312.81-1.32Q312.13-2.05 311.83-3.39 311.54-4.74 311.54-7.32L311.54-7.32 311.54-18.85 307.44-18.85 307.44-19.48Q308.61-19.48 310.29-20.14 311.98-20.8 312.61-21.58L312.61-21.58Q313.25-22.41 313.88-23.95 314.52-25.49 314.52-27L314.52-27 315.64-27Q315.45-25.44 315.45-22.22L315.45-22.22Q315.45-21.88 315.45-21.14 315.45-20.41 315.45-20.02L315.45-20.02 321.01-20.12ZM333.51 0.63L333.51 0.63Q332.53 0.63 331.17 0.15 329.8-0.34 328.87-0.78L328.87-0.78 328.04-1.32 327.8 0.1 326.87 0.1 326.77-6.74 327.6-6.64Q327.85-4.25 329.36-2.27 330.87-0.29 333.51-0.29L333.51-0.29Q338.1-0.29 338.1-4L338.1-4Q338.1-6.69 332.29-8.79L332.29-8.79Q329.8-9.67 328.46-10.89 327.11-12.11 327.11-14.21L327.11-14.21Q327.11-17.14 329.12-18.82 331.12-20.51 334.39-20.51L334.39-20.51Q335.8-20.51 336.95-20.02 338.1-19.53 338.54-19.09L338.54-19.09 338.98-18.6 339.13-20.07 340.05-20.07 339.96-13.92 339.08-13.92Q338.98-14.6 338.93-14.97 338.88-15.33 338.69-16.19 338.49-17.04 338.15-17.53 337.81-18.02 337.27-18.58 336.73-19.14 335.85-19.41 334.97-19.68 333.9-19.68L333.9-19.68Q332.39-19.68 331.43-18.73 330.48-17.77 330.48-16.31L330.48-16.31Q330.48-15.48 330.85-14.82 331.22-14.16 331.87-13.7 332.53-13.23 333.17-12.96 333.8-12.7 334.78-12.35 335.76-12.01 336.24-11.82L336.24-11.82Q341.62-9.42 341.62-5.96L341.62-5.96Q341.62-2.44 339.66-0.9 337.71 0.63 333.51 0.63Z" opacity="1" transform="matrix(1,0,0,1,0,0)" fill="#638773" class="slogan-text-1" data-fill-palette-color="secondary" id="text-1"></path></svg></g></svg></g></svg></g></svg></g><g transform="matrix(1,0,0,1,0,2.3258672380956966)"><svg viewBox="0 0 217.4137949699338 217.4137949699338" height="217.4137949699338" width="217.4137949699338"><g><svg xmlns="http://www.w3.org/2000/svg" xmlns:xlink="http://www.w3.org/1999/xlink" version="1.1" x="0" y="0" viewBox="19 22 41 41" enable-background="new 0 0 80 80" xml:space="preserve" height="217.4137949699338" width="217.4137949699338" class="icon-icon-0" data-fill-palette-color="accent" id="icon-0"><g fill="#638773" data-fill-palette-color="accent"><path fill="#638773" d="M57 63H22C20.3 63 19 61.7 19 60V25C19 23.3 20.3 22 22 22H57C58.7 22 60 23.3 60 25V60C60 61.7 58.7 63 57 63M22 24C21.4 24 21 24.4 21 25V60C21 60.6 21.4 61 22 61H57C57.6 61 58 60.6 58 60V25C58 24.4 57.6 24 57 24z" data-fill-palette-color="accent"></path></g><g fill="#638773" data-fill-palette-color="accent"><path fill="#638773" d="M39.5 48C37.6 48 35.9 46.6 35.7 44.6L34.4 33.2C34.3 32.1 34.6 31 35.3 30.2S37.1 28.9 38.1 28.9H40.8C41.9 28.9 42.9 29.4 43.6 30.2S44.7 32.1 44.5 33.2L43.2 44.6C43.1 46.6 41.4 48 39.5 48M38.2 31C37.7 31 37.2 31.2 36.8 31.6S36.3 32.5 36.4 33L37.7 44.4C37.8 45.3 38.6 46 39.5 46S41.2 45.3 41.3 44.4L42.6 33C42.7 32.5 42.5 32 42.2 31.6S41.4 31 40.8 31z" data-fill-palette-color="accent"></path></g><g fill="#638773" data-fill-palette-color="accent"><path fill="#638773" d="M39.5 56C37.6 56 36 54.4 36 52.5S37.6 49 39.5 49 43 50.6 43 52.5 41.4 56 39.5 56M39.5 51C38.7 51 38 51.7 38 52.5S38.7 54 39.5 54 41 53.3 41 52.5 40.3 51 39.5 51" data-fill-palette-color="accent"></path></g></svg></g></svg></g></svg></g><defs></defs></svg><rect width="395.52" height="141.4157550583249" fill="none" stroke="none" visibility="hidden"></rect></g></svg></g></svg>